<?xml version="1.0" encoding="UTF-8"?>
<svg width="341px" height="127px" viewBox="0 0 341 127" version="1.1" xmlns="http://www.w3.org/2000/svg" xmlns:xlink="http://www.w3.org/1999/xlink">
    <title>Logo</title>
    <g id="Logo" stroke="none" stroke-width="1" fill="none" fill-rule="evenodd">
        <path d="M141.363,65 L143.742,53.456 C144.171,51.506 144.483,49.439 144.795,47.567 L144.951,47.567 C145.224,49.439 145.536,51.506 145.965,53.456 L148.461,65 L155.676,65 L160.2,39.572 L154.701,39.572 L152.946,51.467 C152.595,54.08 152.244,56.771 151.893,59.501 L151.737,59.501 C151.23,56.771 150.723,54.041 150.216,51.467 L147.486,39.572 L142.611,39.572 L139.881,51.467 C139.374,54.119 138.867,56.81 138.36,59.501 L138.204,59.501 C137.892,56.81 137.502,54.119 137.19,51.467 L135.435,39.572 L129.546,39.572 L134.265,65 L141.363,65 Z M171.9,65.468 C174.201,65.468 176.775,64.649 178.764,63.284 L176.853,59.813 C175.449,60.671 174.123,61.1 172.68,61.1 C170.106,61.1 168.156,59.813 167.649,56.888 L179.232,56.888 C179.349,56.42 179.466,55.484 179.466,54.47 C179.466,49.205 176.736,45.188 171.237,45.188 C166.596,45.188 162.111,49.049 162.111,55.328 C162.111,61.724 166.362,65.468 171.9,65.468 Z M174.591,53.339 L167.61,53.339 C168,50.765 169.56,49.556 171.354,49.556 C173.655,49.556 174.591,51.116 174.591,53.339 Z M193.584,65.468 C197.757,65.468 201.735,61.646 201.735,54.977 C201.735,49.049 198.81,45.188 194.13,45.188 C192.336,45.188 190.503,46.007 189.021,47.333 L189.177,44.369 L189.177,37.661 L183.444,37.661 L183.444,65 L187.929,65 L188.397,62.972 L188.553,62.972 C190.074,64.61 191.868,65.468 193.584,65.468 Z M192.258,60.788 C191.283,60.788 190.191,60.476 189.177,59.54 L189.177,51.623 C190.269,50.414 191.322,49.868 192.492,49.868 C194.793,49.868 195.846,51.623 195.846,55.094 C195.846,59.072 194.247,60.788 192.258,60.788 Z M221.859,65 C229.308,65 234.3,60.905 234.3,52.169 C234.3,43.433 229.308,39.572 221.547,39.572 L214.371,39.572 L214.371,65 L221.859,65 Z M221.196,60.359 L220.104,60.359 L220.104,44.213 L221.196,44.213 C225.525,44.213 228.411,46.085 228.411,52.169 C228.411,58.253 225.525,60.359 221.196,60.359 Z M247.326,65.468 C249.627,65.468 252.201,64.649 254.19,63.284 L252.279,59.813 C250.875,60.671 249.549,61.1 248.106,61.1 C245.532,61.1 243.582,59.813 243.075,56.888 L254.658,56.888 C254.775,56.42 254.892,55.484 254.892,54.47 C254.892,49.205 252.162,45.188 246.663,45.188 C242.022,45.188 237.537,49.049 237.537,55.328 C237.537,61.724 241.788,65.468 247.326,65.468 Z M250.017,53.339 L243.036,53.339 C243.426,50.765 244.986,49.556 246.78,49.556 C249.081,49.556 250.017,51.116 250.017,53.339 Z M264.564,65.468 C269.751,65.468 272.52,62.738 272.52,59.228 C272.52,55.679 269.751,54.314 267.294,53.417 C265.305,52.676 263.511,52.208 263.511,50.96 C263.511,49.985 264.213,49.439 265.695,49.439 C267.06,49.439 268.386,50.063 269.79,51.077 L272.364,47.645 C270.687,46.397 268.503,45.188 265.539,45.188 C261.054,45.188 258.129,47.645 258.129,51.233 C258.129,54.431 260.898,56.03 263.238,56.927 C265.227,57.707 267.177,58.292 267.177,59.579 C267.177,60.593 266.436,61.217 264.72,61.217 C263.082,61.217 261.483,60.515 259.728,59.189 L257.154,62.777 C259.104,64.376 262.029,65.468 264.564,65.468 Z M278.994,42.809 C280.944,42.809 282.309,41.561 282.309,39.806 C282.309,38.051 280.944,36.842 278.994,36.842 C277.083,36.842 275.679,38.051 275.679,39.806 C275.679,41.561 277.083,42.809 278.994,42.809 Z M281.88,65 L281.88,45.656 L276.147,45.656 L276.147,65 L281.88,65 Z M293.814,73.229 C300.444,73.229 304.617,70.304 304.617,66.287 C304.617,62.816 302.004,61.373 297.246,61.373 L294.126,61.373 C291.981,61.373 291.201,60.905 291.201,59.93 C291.201,59.267 291.396,58.916 291.903,58.487 C292.761,58.76 293.541,58.877 294.243,58.877 C298.494,58.877 301.848,56.81 301.848,52.364 C301.848,51.35 301.575,50.414 301.224,49.829 L304.305,49.829 L304.305,45.656 L297.246,45.656 C296.388,45.344 295.335,45.188 294.243,45.188 C290.07,45.188 286.248,47.528 286.248,52.169 C286.248,54.431 287.496,56.264 288.861,57.2 L288.861,57.356 C287.613,58.214 286.677,59.579 286.677,60.983 C286.677,62.582 287.457,63.596 288.471,64.259 L288.471,64.415 C286.677,65.429 285.702,66.716 285.702,68.315 C285.702,71.747 289.29,73.229 293.814,73.229 Z M294.243,55.406 C292.722,55.406 291.591,54.314 291.591,52.169 C291.591,50.102 292.722,49.049 294.243,49.049 C295.764,49.049 296.895,50.141 296.895,52.169 C296.895,54.314 295.764,55.406 294.243,55.406 Z M294.711,69.641 C292.137,69.641 290.421,68.861 290.421,67.418 C290.421,66.716 290.772,66.131 291.474,65.507 C292.098,65.663 292.878,65.741 294.204,65.741 L296.193,65.741 C298.104,65.741 299.157,66.053 299.157,67.262 C299.157,68.588 297.285,69.641 294.711,69.641 Z M313.47,65 L313.47,51.935 C314.718,50.726 315.615,50.063 317.058,50.063 C318.696,50.063 319.437,50.921 319.437,53.729 L319.437,65 L325.17,65 L325.17,52.988 C325.17,48.152 323.376,45.188 319.164,45.188 C316.551,45.188 314.601,46.553 312.963,48.113 L312.807,48.113 L312.417,45.656 L307.737,45.656 L307.737,65 L313.47,65 Z M139.764,102.468 C145.848,102.468 149.358,98.802 149.358,94.59 C149.358,91.002 147.408,88.935 144.327,87.687 L141.051,86.361 C138.867,85.464 137.19,84.918 137.19,83.358 C137.19,81.915 138.438,81.057 140.427,81.057 C142.455,81.057 144.015,81.798 145.692,83.085 L148.617,79.458 C146.433,77.274 143.352,76.104 140.427,76.104 C135.123,76.104 131.379,79.458 131.379,83.67 C131.379,87.375 133.875,89.559 136.488,90.612 L139.803,92.016 C142.026,92.952 143.469,93.459 143.469,95.058 C143.469,96.579 142.299,97.515 139.92,97.515 C137.814,97.515 135.474,96.423 133.641,94.863 L130.365,98.802 C132.939,101.22 136.449,102.468 139.764,102.468 Z M161.643,102.468 C163.749,102.468 166.206,101.688 168.078,100.05 L165.777,96.423 C164.841,97.164 163.71,97.827 162.306,97.827 C159.81,97.827 157.977,95.682 157.977,92.328 C157.977,88.974 159.732,86.829 162.501,86.829 C163.398,86.829 164.256,87.18 165.192,87.96 L167.805,84.411 C166.518,83.085 164.529,82.188 162.15,82.188 C156.807,82.188 152.088,85.893 152.088,92.328 C152.088,98.763 156.261,102.468 161.643,102.468 Z M177.165,102 L177.165,90.768 C178.179,88.155 179.973,87.219 181.416,87.219 C182.235,87.219 182.82,87.336 183.522,87.531 L184.458,82.578 C183.912,82.344 183.249,82.188 182.157,82.188 C180.168,82.188 178.062,83.436 176.658,86.049 L176.502,86.049 L176.112,82.656 L171.432,82.656 L171.432,102 L177.165,102 Z M191.985,102.468 C194.169,102.468 196.002,101.454 197.64,100.011 L197.757,100.011 L198.186,102 L202.866,102 L202.866,90.924 C202.866,84.996 200.136,82.188 195.183,82.188 C192.141,82.188 189.372,83.241 186.915,84.723 L188.943,88.506 C190.815,87.414 192.453,86.751 194.091,86.751 C196.158,86.751 197.016,87.843 197.133,89.559 C189.489,90.339 186.252,92.562 186.252,96.618 C186.252,99.894 188.475,102.468 191.985,102.468 Z M193.935,98.022 C192.57,98.022 191.712,97.437 191.712,96.189 C191.712,94.707 193.038,93.537 197.133,92.991 L197.133,96.384 C196.119,97.398 195.261,98.022 193.935,98.022 Z M213.513,109.176 L213.513,103.521 L213.318,100.44 C214.683,101.727 216.243,102.468 217.92,102.468 C222.093,102.468 226.071,98.646 226.071,92.016 C226.071,86.049 223.185,82.188 218.505,82.188 C216.477,82.188 214.527,83.202 213.006,84.567 L212.85,84.567 L212.46,82.656 L207.78,82.656 L207.78,109.176 L213.513,109.176 Z M216.594,97.788 C215.619,97.788 214.527,97.476 213.513,96.54 L213.513,88.623 C214.644,87.414 215.658,86.868 216.828,86.868 C219.129,86.868 220.182,88.623 220.182,92.094 C220.182,96.072 218.583,97.788 216.594,97.788 Z M238.785,102.468 C241.086,102.468 243.66,101.649 245.649,100.284 L243.738,96.813 C242.334,97.671 241.008,98.1 239.565,98.1 C236.991,98.1 235.041,96.813 234.534,93.888 L246.117,93.888 C246.234,93.42 246.351,92.484 246.351,91.47 C246.351,86.205 243.621,82.188 238.122,82.188 C233.481,82.188 228.996,86.049 228.996,92.328 C228.996,98.724 233.247,102.468 238.785,102.468 Z M241.476,90.339 L234.495,90.339 C234.885,87.765 236.445,86.556 238.239,86.556 C240.54,86.556 241.476,88.116 241.476,90.339 Z M256.062,102 L256.062,90.768 C257.076,88.155 258.87,87.219 260.313,87.219 C261.132,87.219 261.717,87.336 262.419,87.531 L263.355,82.578 C262.809,82.344 262.146,82.188 261.054,82.188 C259.065,82.188 256.959,83.436 255.555,86.049 L255.399,86.049 L255.009,82.656 L250.329,82.656 L250.329,102 L256.062,102 Z" id="WebDesignScraper" fill="#0E0E0E" fill-rule="nonzero"></path>
        <g id="Group" transform="translate(14.000000, 20.000000)" stroke="#0F283A" stroke-width="3">
            <rect id="Rectangle" fill="#FFFFFF" x="0" y="11" width="100" height="77" rx="4"></rect>
            <g transform="translate(25.000000, 25.000000)" stroke-linecap="round" stroke-linejoin="round">
                <path d="M0,50 L50,50 L50,0 L0,50 Z M39,39 L25,39 L39,25 L39,39 Z" id="Shape" fill="#B7DFFF" fill-rule="nonzero" transform="translate(25.000000, 25.000000) scale(-1, 1) translate(-25.000000, -25.000000) "></path>
                <line x1="0" y1="8" x2="3" y2="8" id="Path" transform="translate(1.500000, 8.000000) scale(-1, 1) translate(-1.500000, -8.000000) "></line>
                <line x1="0" y1="14" x2="5" y2="14" id="Path" transform="translate(2.500000, 14.000000) scale(-1, 1) translate(-2.500000, -14.000000) "></line>
                <line x1="0" y1="20" x2="3" y2="20" id="Path" transform="translate(1.500000, 20.000000) scale(-1, 1) translate(-1.500000, -20.000000) "></line>
                <line x1="0" y1="26" x2="5" y2="26" id="Path" transform="translate(2.500000, 26.000000) scale(-1, 1) translate(-2.500000, -26.000000) "></line>
                <line x1="0" y1="32" x2="3" y2="32" id="Path" transform="translate(1.500000, 32.000000) scale(-1, 1) translate(-1.500000, -32.000000) "></line>
                <line x1="0" y1="38" x2="5" y2="38" id="Path" transform="translate(2.500000, 38.000000) scale(-1, 1) translate(-2.500000, -38.000000) "></line>
                <line x1="0" y1="44" x2="3" y2="44" id="Path" transform="translate(1.500000, 44.000000) scale(-1, 1) translate(-1.500000, -44.000000) "></line>
            </g>
            <path d="M8,0 L47,0 C49.209139,-4.05812251e-16 51,1.790861 51,4 L51,11 L51,11 L4,11 L4,4 C4,1.790861 5.790861,4.05812251e-16 8,0 Z" id="Rectangle" fill="#B7DFFF"></path>
        </g>
    </g>
</svg>