<?xml version="1.0" encoding="UTF-8"?>
<svg width="127px" height="127px" viewBox="0 0 127 127" version="1.1" xmlns="http://www.w3.org/2000/svg" xmlns:xlink="http://www.w3.org/1999/xlink">
    <title>logo-small-2</title>
    <g id="logo-small-2" stroke="none" stroke-width="1" fill="none" fill-rule="evenodd">
        <path d="M24,20 L63,20 C65.209139,20 67,21.790861 67,24 L67,46 L67,46 L20,46 L20,24 C20,21.790861 21.790861,20 24,20 Z" id="Rectangle" fill="#2096F3"></path>
        <rect id="Combined-Shape" fill="#2096F3" x="14" y="31" width="100" height="77" rx="4"></rect>
        <path d="M43.8284271,95 L87,95 C88.1045695,95 89,94.1045695 89,93 L89,49.8284271 C89,48.7238576 88.1045695,47.8284271 87,47.8284271 C86.469567,47.8284271 85.9608592,48.0391408 85.5857864,48.4142136 L42.4142136,91.5857864 C41.633165,92.366835 41.633165,93.633165 42.4142136,94.4142136 C42.7892863,94.7892863 43.2979941,95 43.8284271,95 Z" id="Path" fill="#FFFFFF" fill-rule="nonzero" transform="translate(64.000000, 70.000000) scale(-1, 1) translate(-64.000000, -70.000000) "></path>
        <path d="M63,84 L52.4142136,84 C51.8619288,84 51.4142136,83.5522847 51.4142136,83 C51.4142136,82.7347835 51.5195704,82.4804296 51.7071068,82.2928932 L62.2928932,71.7071068 C62.6834175,71.3165825 63.3165825,71.3165825 63.7071068,71.7071068 C63.8946432,71.8946432 64,72.1489971 64,72.4142136 L64,83 C64,83.5522847 63.5522847,84 63,84 Z" id="Path" fill="#2096F3" transform="translate(57.000000, 77.000000) scale(-1, 1) translate(-57.000000, -77.000000) "></path>
    </g>
</svg>